# xmcd
#
# Track frame offsets:
#	150
#	16496
#	36536
#	59354
#	77061
#	97874
#	118599
#	137735
#	159190
#	175494
#	198505
#	217825
#
# Disc length: 3181 seconds
#
# Revision: 1
# Processed by: cddbd v1.5.2PL0 Copyright (c) Steve Scherf et al.
# Submitted via: audiograbber 1.83.01
#
DISCID=9e0c6b0c
DTITLE=Helmut Jost - God is able
DYEAR=2010
DGENRE=
TTITLE0=We serve a mighty god
TTITLE1=Come into his presence
TTITLE2=God is able
TTITLE3=Let your voices ring
TTITLE4=Be merciful
TTITLE5=Sing halleluja
TTITLE6=By and by
TTITLE7=I'm not alone
TTITLE8=You are always there
TTITLE9=Again and again
TTITLE10=He wants to come
TTITLE11=Come home
EXTD=
EXTT0=
EXTT1=
EXTT2=
EXTT3=
EXTT4=
EXTT5=
EXTT6=
EXTT7=
EXTT8=
EXTT9=
EXTT10=
EXTT11=
PLAYORDER=
